# xmcd
#
# Track frame offsets:
#	183
#	11050
#	21228
#	33140
#	44665
#	56608
#	68933
#	81813
#	94918
#	108928
#	121870
#	138455
#	148005
#	164255
#	183295
#	193820
#	205623
#	218738
#	240228
#	265410
#	279993
#
# Disc length: 3898 seconds
#
# Revision: 1
# Processed by: cddbd v1.4PL0 Copyright (c) Steve Scherf et al.
# Submitted via: audiograbber 1.81.02
#
DISCID=2a0f3815
DTITLE=Various Artist - Memphis International Edition CD 3
DYEAR=1900
DGENRE=Soul and Blues
TTITLE0=Eddie Floy - Bring It Home To Me
TTITLE1=The Ciffons - One Fine Day
TTITLE2=Clarence Carter - Slip Away
TTITLE3=Same and Dave - Land Of 1000 Dances
TTITLE4=Barbara Lynn - You´ll Lose A Good Thing
TTITLE5=Cornelius Brothers - Treat Her Like A Lady
TTITLE6=Percy Sledge - Cover Me
TTITLE7=Louis Armstrong - St. Llouis Blues
TTITLE8=Ella Fitzgerald - Sugar Blues
TTITLE9=Count Basi and His Orchestra - Blee Blop Blues
TTITLE10=Thomas "Fats" Waller - Laughing Crying Blues
TTITLE11=Louis Armstrong - Royal Garden Blues
TTITLE12=Soloing: Bechet/Wibber - Kansas City Man Blues
TTITLE13=Delaney - Jazz Me Blues
TTITLE14=Louis Armstrong and Edmond Hall Orchestra - Dippermouth Blues
TTITLE15=Benny Goodman and HisGroups/Orchestra - Limehouse Blues
TTITLE16=Harry James& His Orchestra - Feet Draggin´ Blues
TTITLE17=Louis Armstrong - Bach O´Town Blues
TTITLE18=Oscar Pettiford - Blues In The Closet
TTITLE19=Harry James and Group - Bye-Bye Blues
TTITLE20=Louis Armstrong - Basin Street Blues
EXTD=
EXTT0=
EXTT1=
EXTT2=
EXTT3=
EXTT4=
EXTT5=
EXTT6=
EXTT7=
EXTT8=
EXTT9=
EXTT10=
EXTT11=
EXTT12=
EXTT13=
EXTT14=
EXTT15=
EXTT16=
EXTT17=
EXTT18=
EXTT19=
EXTT20=
PLAYORDER=
